<?xml version="1.0" standalone="no"?>
<!DOCTYPE svg PUBLIC "-//W3C//DTD SVG 20010904//EN"
 "http://www.w3.org/TR/2001/REC-SVG-20010904/DTD/svg10.dtd">
<svg version="1.0" xmlns="http://www.w3.org/2000/svg"
 width="700.000000pt" height="700.000000pt" viewBox="0 0 700.000000 700.000000"
 preserveAspectRatio="xMidYMid meet">
<metadata>
Created by potrace 1.14, written by Peter Selinger 2001-2017
</metadata>
<g transform="translate(0.000000,700.000000) scale(0.100000,-0.100000)"
fill="#000000" stroke="none">
<path d="M3255 6719 c-33 -4 -89 -10 -124 -13 -58 -6 -236 -36 -301 -50 -30
-7 -68 -15 -95 -20 -42 -9 -223 -64 -293 -89 -794 -288 -1424 -852 -1791
-1602 -94 -192 -152 -347 -217 -580 -20 -73 -63 -288 -70 -348 -3 -29 -7 -59
-9 -67 -19 -72 -27 -511 -12 -665 13 -138 14 -148 43 -320 11 -67 68 -286 99
-380 102 -313 231 -569 442 -875 19 -28 115 -152 123 -160 3 -3 30 -34 60 -70
94 -112 283 -294 416 -401 258 -206 539 -370 831 -485 161 -63 229 -65 297 -5
45 40 48 60 48 335 0 144 -1 274 -1 289 -1 27 -3 28 -39 22 -21 -3 -49 -8 -62
-11 -57 -13 -304 -16 -376 -4 -222 35 -409 150 -521 318 -20 30 -57 105 -83
166 -93 219 -178 330 -333 434 -81 56 -127 103 -127 133 0 33 57 59 128 59
186 0 355 -113 510 -342 166 -243 344 -344 587 -333 97 5 117 8 222 41 48 14
87 32 92 42 5 9 12 39 15 65 15 103 87 256 152 320 15 15 25 29 22 32 -2 2
-22 7 -44 10 -284 40 -468 89 -649 174 -301 141 -529 396 -634 709 -75 222
-101 414 -96 707 2 166 6 203 29 290 27 107 62 196 109 285 34 64 129 199 162
230 22 21 23 25 10 59 -12 34 -26 98 -40 176 -7 41 -7 231 0 280 16 114 47
229 90 338 15 36 187 17 345 -38 130 -46 417 -191 428 -217 2 -4 8 -8 14 -8 5
0 28 -13 51 -29 33 -22 47 -26 65 -20 13 5 33 11 45 14 12 2 40 9 62 14 22 6
60 13 85 17 25 3 63 9 85 14 82 17 227 25 465 25 260 0 353 -6 508 -31 53 -9
111 -18 127 -20 17 -2 66 -12 110 -22 l80 -18 95 60 c140 88 347 191 454 225
119 38 133 41 237 48 l86 6 21 -54 c79 -197 98 -462 50 -685 l-25 -110 35 -40
c124 -142 233 -367 267 -551 3 -16 8 -39 11 -53 4 -14 8 -110 9 -215 8 -604
-182 -1034 -566 -1282 -168 -109 -431 -204 -659 -237 -19 -2 -55 -7 -80 -11
-25 -3 -54 -8 -65 -10 -11 -2 -28 -4 -38 -4 -14 -1 -9 -13 28 -58 73 -90 125
-211 151 -358 4 -22 8 -273 9 -557 2 -576 1 -569 70 -617 27 -18 49 -24 97
-25 54 0 82 7 195 52 302 121 578 282 826 481 479 385 838 905 1028 1486 55
166 106 389 124 535 4 30 9 62 10 71 29 153 26 593 -5 779 -5 30 -12 78 -16
105 -3 28 -8 53 -10 56 -2 4 -6 24 -10 45 -32 203 -177 616 -291 823 -19 36
-49 91 -66 121 -51 95 -192 301 -284 415 -93 117 -319 349 -418 431 -33 27
-69 57 -79 67 -35 30 -259 188 -314 221 -377 220 -728 356 -1082 420 -48 8
-95 16 -132 21 -21 3 -53 7 -70 10 -137 19 -516 27 -633 14z"/>
</g>
</svg>
